<svg width="11" height="9" viewBox="0 0 11 9" fill="none" xmlns="http://www.w3.org/2000/svg">
<path d="M2.61975 0.0078125L0.0341797 2.60042L1.32697 3.40658L2.61975 2.60042L3.35011 1.30412L2.61975 0.0078125Z" fill="#FF2820"/>
<path d="M2.61975 2.60046H0.0341797V5.97102L1.32697 6.68285L2.61975 5.97102V2.60046Z" fill="#0084FF"/>
<path d="M0.0341797 5.97095V7.69934C0.0350276 7.92842 0.126156 8.14786 0.287676 8.30976C0.449195 8.47167 0.66799 8.5629 0.896305 8.56353H2.61975L3.35011 7.18744L2.61975 5.97095H0.0341797Z" fill="#0066DD"/>
<path d="M9.844 0.930852L8.24508 2.20136V2.21426L7.72363 4.21112L8.24508 6.23215L9.83758 7.51717C9.88551 7.55739 9.94386 7.58311 10.0058 7.59131C10.0678 7.59951 10.1307 7.58986 10.1874 7.56349C10.2441 7.53712 10.2922 7.49511 10.326 7.44238C10.3598 7.38964 10.3779 7.32835 10.3783 7.26566V1.17995C10.3798 1.11722 10.363 1.05541 10.33 1.00211C10.2969 0.948805 10.2492 0.906328 10.1924 0.879883C10.1357 0.853438 10.0725 0.844173 10.0106 0.853227C9.94875 0.862281 9.89084 0.889259 9.844 0.930852Z" fill="#00AD3C"/>
<path d="M8.24345 2.19896V0.862343C8.24388 0.636969 8.15539 0.420583 7.99731 0.260466C7.83924 0.100349 7.62441 0.00951624 7.3998 0.0078125H2.61914V2.60042H5.78643V4.2861L7.48818 4.09585L8.24345 2.19896Z" fill="#FFBA00"/>
<path d="M5.78643 5.97169H2.61914V8.5643H7.3998C7.6242 8.56281 7.83889 8.47227 7.99697 8.31245C8.15505 8.15264 8.24366 7.93654 8.24345 7.71138V6.23127L7.399 4.4924L5.78643 4.28601V5.97169Z" fill="#00AD3C"/>
<path d="M5.78809 4.28606L8.24431 6.2305V2.19971L5.78809 4.28606Z" fill="#00831E"/>
</svg>
